<svg id="Layer_1" data-name="Layer 1" xmlns="http://www.w3.org/2000/svg" viewBox="0 0 425 40"><defs><style>.cls-1{fill:#fff;}</style></defs><g id="ADKPGENK0002-MainLW-RGB-black"><path id="symbol" class="cls-1" d="M10.154,30.27338,27.82172,19.28386h9.16466a.53541.53541,0,0,1,.53577.53578.468.468,0,0,1-.25379.4512l-8.6776,5.20135a1.77141,1.77141,0,0,0-.76139,1.52275l-.00871,3.27844H38.84748V11.219a.675.675,0,0,0-.70495-.67677H27.62433L10,21.48336v8.79Z"/></g><polygon class="cls-1" points="154.993 30.272 170.876 30.272 170.876 26.006 160.024 26.006 160.024 22.43 168.755 22.43 168.755 18.138 160.024 18.138 160.024 14.809 170.876 14.809 170.876 10.543 154.993 10.543 154.993 30.272"/><path class="cls-1" d="M55.16124,10.54253,47.59,30.2722h5.20373l1.32157-3.6993H62.567L63.867,30.2722h5.37634L61.57344,10.54253Zm.45185,11.83782,2.763-7.73429,2.71771,7.73429Z"/><polygon class="cls-1" points="90.823 14.809 97.185 14.809 97.185 30.272 102.216 30.272 102.216 14.809 108.555 14.809 108.555 10.543 90.823 10.543 90.823 14.809"/><path class="cls-1" d="M83.498,22.72567c0,2.56479-1.57839,3.60065-4.2666,3.60065-2.61416,0-4.3158-1.08514-4.3158-3.60065V10.54253H69.88449V23.29288c0,5.69688,5.08039,7.47257,9.34691,7.47257,4.24192,0,9.29762-1.77569,9.29762-7.47257V10.54253H83.498Z"/><polygon class="cls-1" points="212.406 10.543 206.414 10.543 199.237 18.558 199.237 10.543 194.206 10.543 194.23 30.272 199.237 30.272 199.237 22.775 206.044 30.272 212.406 30.272 203.232 20.531 212.406 10.543"/><path class="cls-1" d="M143.15541,10.54253h-9.22357V30.2722h9.22357c7.078,0,9.02628-2.63884,9.02628-10.01285C152.18169,13.32939,150.30744,10.54253,143.15541,10.54253Zm-.1973,15.46316h-3.99525V14.809h3.99525c3.15678,0,4.0939.86325,4.0939,5.45031C147.052,24.452,145.99156,26.00569,142.95811,26.00569Z"/><path class="cls-1" d="M186.092,18.65636l-4.58715-.51793c-2.68813-.296-3.354-.96181-3.354-1.87425,0-1.01117,1.38109-1.9237,4.06922-1.9237,2.58948,0,3.94588.9619,4.19255,2.41686H191.345C191.09842,12.58948,187.59642,10,182.49134,10c-6.06688,0-9.12492,2.41686-9.12492,6.68338,0,3.47741,2.02226,5.10507,6.21481,5.549l4.66112.49325c1.77568.1973,2.58947.88784,2.58947,1.77568,0,1.01118-1.1837,1.92362-4.04453,1.92362-3.30471,0-4.63643-.83847-4.85841-2.51551h-4.83373c.2219,4.53778,3.18138,6.85608,9.51953,6.85608,5.79553,0,9.02627-2.5402,9.02627-6.36283C191.641,21.07323,189.71733,19.07564,186.092,18.65636Z"/><path class="cls-1" d="M120.26905,10c-7.17662,0-10.90061,4.41453-10.90061,10.35808,0,5.96815,3.724,10.40737,10.90061,10.40737,7.20131,0,10.92529-4.43922,10.92529-10.40737C131.19434,14.41453,127.47036,10,120.26905,10Zm0,16.32623c-3.724,0-5.77094-2.26884-5.77094-5.96815,0-3.62533,2.047-5.919,5.77094-5.919,3.74867,0,5.77094,2.29362,5.77094,5.919C126.04,24.05739,124.01772,26.32623,120.26905,26.32623Z"/><path class="cls-1" d="M333.13656,10.54373l-7.67,19.72992H330.843l1.3-3.69935h8.45182l1.32158,3.69935h5.20379l-7.57131-19.72992Zm.47959,11.838,2.71775-7.73439L339.097,22.3817Z"/><polygon class="cls-1" points="345.323 14.81 351.686 14.81 351.686 30.274 356.717 30.274 356.717 14.81 363.055 14.81 363.055 10.544 345.323 10.544 345.323 14.81"/><path class="cls-1" d="M277.36942,22.75161c0,2.56483-1.57841,3.6007-4.26666,3.6007-2.61419,0-4.31585-1.08515-4.31585-3.6007V10.54373h-5.03117v12.7751c0,5.697,5.08045,7.47267,9.347,7.47267,4.242,0,9.29775-1.77571,9.29775-7.47267V10.54373h-5.03109Z"/><path class="cls-1" d="M316.27207,10.54253h-9.22369V30.27246h9.22369c7.07806,0,9.02639-2.63888,9.02639-10.013C325.29846,13.32943,323.42418,10.54253,316.27207,10.54253Zm-.1973,15.46336h-3.99531V14.8091h3.99531c3.15681,0,4.094.86326,4.094,5.45038C320.16872,24.45217,319.10825,26.00589,316.07477,26.00589Z"/><polygon class="cls-1" points="370.38 10.544 365.349 10.544 365.373 30.274 370.38 30.274 370.38 10.544"/><path class="cls-1" d="M383.94615,10.00119c-7.17671,0-10.90075,4.41459-10.90075,10.35822,0,5.96822,3.724,10.40749,10.90075,10.40749,7.2014,0,10.92543-4.43927,10.92543-10.40749C394.87158,14.41578,391.14755,10.00119,383.94615,10.00119Zm0,16.32644c-3.724,0-5.771-2.26887-5.771-5.96822,0-3.62539,2.047-5.919,5.771-5.919,3.74872,0,5.771,2.29364,5.771,5.919C389.71716,24.05876,387.69487,26.32763,383.94615,26.32763Z"/><path class="cls-1" d="M250.30791,10.00119c-7.17671,0-10.90074,4.41459-10.90074,10.35822,0,5.96822,3.724,10.40749,10.90074,10.40749,7.2014,0,10.92544-4.43927,10.92544-10.40749C261.23335,14.41578,257.50931,10.00119,250.30791,10.00119Zm0,16.32644c-3.724,0-5.771-2.26887-5.771-5.96822,0-3.62539,2.047-5.919,5.771-5.919,3.74872,0,5.771,2.29364,5.771,5.919C256.07892,24.05876,254.05663,26.32763,250.30791,26.32763Z"/><polygon class="cls-1" points="299.03 10.545 299.03 22.325 290.365 10.545 285.474 10.545 285.474 30.272 290.419 30.272 290.419 18.417 298.992 30.272 303.975 30.272 303.975 10.545 299.03 10.545"/><polygon class="cls-1" points="411.094 10.545 411.094 22.325 402.429 10.545 397.538 10.545 397.538 30.272 402.483 30.272 402.483 18.417 411.056 30.272 416.039 30.272 416.039 10.545 411.094 10.545"/><polygon class="cls-1" points="227.304 30.272 227.304 22.646 236.034 22.646 236.034 18.355 227.304 18.355 227.304 14.809 238.299 14.809 238.299 10.543 222.273 10.543 222.273 30.272 227.304 30.272"/></svg>